<mxfile host="app.diagrams.net" agent="Mozilla/5.0 (Windows NT 10.0; Win64; x64) AppleWebKit/537.36 (KHTML, like Gecko) Chrome/136.0.0.0 Safari/537.36" version="27.1.3">
  <diagram name="PÃ¡gina-1" id="UYBbEr-P3iVJ3-S_pUQv">
    <mxGraphModel dx="2736" dy="1847" grid="1" gridSize="10" guides="1" tooltips="1" connect="1" arrows="1" fold="1" page="1" pageScale="1" pageWidth="827" pageHeight="1169" math="0" shadow="0">
      <root>
        <mxCell id="0" />
        <mxCell id="1" parent="0" />
        <mxCell id="AHxhu-DeYFs74s3M6ghD-2" value="AWS Cloud" style="points=[[0,0],[0.25,0],[0.5,0],[0.75,0],[1,0],[1,0.25],[1,0.5],[1,0.75],[1,1],[0.75,1],[0.5,1],[0.25,1],[0,1],[0,0.75],[0,0.5],[0,0.25]];outlineConnect=0;gradientColor=none;html=1;whiteSpace=wrap;fontSize=12;fontStyle=0;container=1;pointerEvents=0;collapsible=0;recursiveResize=0;shape=mxgraph.aws4.group;grIcon=mxgraph.aws4.group_aws_cloud_alt;strokeColor=#232F3E;fillColor=none;verticalAlign=top;align=left;spacingLeft=30;fontColor=#232F3E;dashed=0;" parent="1" vertex="1">
          <mxGeometry x="-230" y="-70" width="1270" height="1040" as="geometry" />
        </mxCell>
        <mxCell id="4Bg8h884cxxMC-hYNa8s-2" value="sa-east-1" style="points=[[0,0],[0.25,0],[0.5,0],[0.75,0],[1,0],[1,0.25],[1,0.5],[1,0.75],[1,1],[0.75,1],[0.5,1],[0.25,1],[0,1],[0,0.75],[0,0.5],[0,0.25]];outlineConnect=0;gradientColor=none;html=1;whiteSpace=wrap;fontSize=12;fontStyle=0;container=1;pointerEvents=0;collapsible=0;recursiveResize=0;shape=mxgraph.aws4.group;grIcon=mxgraph.aws4.group_region;strokeColor=#00A4A6;fillColor=none;verticalAlign=top;align=left;spacingLeft=30;fontColor=#147EBA;dashed=1;" vertex="1" parent="AHxhu-DeYFs74s3M6ghD-2">
          <mxGeometry x="6.5" y="60" width="1230" height="950" as="geometry" />
        </mxCell>
        <mxCell id="4Bg8h884cxxMC-hYNa8s-3" value="VPC" style="points=[[0,0],[0.25,0],[0.5,0],[0.75,0],[1,0],[1,0.25],[1,0.5],[1,0.75],[1,1],[0.75,1],[0.5,1],[0.25,1],[0,1],[0,0.75],[0,0.5],[0,0.25]];outlineConnect=0;gradientColor=none;html=1;whiteSpace=wrap;fontSize=12;fontStyle=0;container=1;pointerEvents=0;collapsible=0;recursiveResize=0;shape=mxgraph.aws4.group;grIcon=mxgraph.aws4.group_vpc2;strokeColor=#8C4FFF;fillColor=none;verticalAlign=top;align=left;spacingLeft=30;fontColor=#AAB7B8;dashed=0;" vertex="1" parent="4Bg8h884cxxMC-hYNa8s-2">
          <mxGeometry x="30" y="190" width="1070" height="660" as="geometry" />
        </mxCell>
        <mxCell id="4Bg8h884cxxMC-hYNa8s-30" value="" style="group" vertex="1" connectable="0" parent="4Bg8h884cxxMC-hYNa8s-3">
          <mxGeometry x="130" y="40" width="220" height="380" as="geometry" />
        </mxCell>
        <mxCell id="4Bg8h884cxxMC-hYNa8s-7" value="Availability Zone A" style="fillColor=none;strokeColor=#147EBA;dashed=1;verticalAlign=top;fontStyle=0;fontColor=#147EBA;whiteSpace=wrap;html=1;" vertex="1" parent="4Bg8h884cxxMC-hYNa8s-30">
          <mxGeometry width="220" height="380" as="geometry" />
        </mxCell>
        <mxCell id="4Bg8h884cxxMC-hYNa8s-12" value="nlb_nota_fiscal" style="sketch=0;outlineConnect=0;fontColor=#232F3E;gradientColor=none;fillColor=#8C4FFF;strokeColor=none;dashed=0;verticalLabelPosition=bottom;verticalAlign=top;align=center;html=1;fontSize=12;fontStyle=0;aspect=fixed;pointerEvents=1;shape=mxgraph.aws4.network_load_balancer;" vertex="1" parent="4Bg8h884cxxMC-hYNa8s-30">
          <mxGeometry x="90" y="64" width="44" height="44" as="geometry" />
        </mxCell>
        <mxCell id="4Bg8h884cxxMC-hYNa8s-20" value="Private subnet" style="points=[[0,0],[0.25,0],[0.5,0],[0.75,0],[1,0],[1,0.25],[1,0.5],[1,0.75],[1,1],[0.75,1],[0.5,1],[0.25,1],[0,1],[0,0.75],[0,0.5],[0,0.25]];outlineConnect=0;gradientColor=none;html=1;whiteSpace=wrap;fontSize=12;fontStyle=0;container=1;pointerEvents=0;collapsible=0;recursiveResize=0;shape=mxgraph.aws4.group;grIcon=mxgraph.aws4.group_security_group;grStroke=0;strokeColor=#00A4A6;fillColor=#E6F6F7;verticalAlign=top;align=left;spacingLeft=30;fontColor=#147EBA;dashed=0;" vertex="1" parent="4Bg8h884cxxMC-hYNa8s-30">
          <mxGeometry x="20" y="143" width="170" height="227" as="geometry" />
        </mxCell>
        <mxCell id="4Bg8h884cxxMC-hYNa8s-26" value="Auto Scaling group" style="points=[[0,0],[0.25,0],[0.5,0],[0.75,0],[1,0],[1,0.25],[1,0.5],[1,0.75],[1,1],[0.75,1],[0.5,1],[0.25,1],[0,1],[0,0.75],[0,0.5],[0,0.25]];outlineConnect=0;gradientColor=none;html=1;whiteSpace=wrap;fontSize=12;fontStyle=0;container=1;pointerEvents=0;collapsible=0;recursiveResize=0;shape=mxgraph.aws4.groupCenter;grIcon=mxgraph.aws4.group_auto_scaling_group;grStroke=1;strokeColor=#D86613;fillColor=none;verticalAlign=top;align=center;fontColor=#D86613;dashed=1;spacingTop=25;" vertex="1" parent="4Bg8h884cxxMC-hYNa8s-20">
          <mxGeometry x="20" y="34" width="130" height="176" as="geometry" />
        </mxCell>
        <mxCell id="4Bg8h884cxxMC-hYNa8s-27" value="nf_service" style="sketch=0;points=[[0,0,0],[0.25,0,0],[0.5,0,0],[0.75,0,0],[1,0,0],[0,1,0],[0.25,1,0],[0.5,1,0],[0.75,1,0],[1,1,0],[0,0.25,0],[0,0.5,0],[0,0.75,0],[1,0.25,0],[1,0.5,0],[1,0.75,0]];outlineConnect=0;fontColor=#232F3E;fillColor=#ED7100;strokeColor=#ffffff;dashed=0;verticalLabelPosition=bottom;verticalAlign=top;align=center;html=1;fontSize=12;fontStyle=0;aspect=fixed;shape=mxgraph.aws4.resourceIcon;resIcon=mxgraph.aws4.ecs;" vertex="1" parent="4Bg8h884cxxMC-hYNa8s-30">
          <mxGeometry x="83" y="260" width="44" height="44" as="geometry" />
        </mxCell>
        <mxCell id="4Bg8h884cxxMC-hYNa8s-31" value="" style="group" vertex="1" connectable="0" parent="4Bg8h884cxxMC-hYNa8s-3">
          <mxGeometry x="460" y="40" width="220" height="380" as="geometry" />
        </mxCell>
        <mxCell id="4Bg8h884cxxMC-hYNa8s-32" value="Availability Zone B" style="fillColor=none;strokeColor=#147EBA;dashed=1;verticalAlign=top;fontStyle=0;fontColor=#147EBA;whiteSpace=wrap;html=1;" vertex="1" parent="4Bg8h884cxxMC-hYNa8s-31">
          <mxGeometry width="220" height="380" as="geometry" />
        </mxCell>
        <mxCell id="4Bg8h884cxxMC-hYNa8s-33" value="nlb_nota_fiscal" style="sketch=0;outlineConnect=0;fontColor=#232F3E;gradientColor=none;fillColor=#8C4FFF;strokeColor=none;dashed=0;verticalLabelPosition=bottom;verticalAlign=top;align=center;html=1;fontSize=12;fontStyle=0;aspect=fixed;pointerEvents=1;shape=mxgraph.aws4.network_load_balancer;" vertex="1" parent="4Bg8h884cxxMC-hYNa8s-31">
          <mxGeometry x="90" y="64" width="44" height="44" as="geometry" />
        </mxCell>
        <mxCell id="4Bg8h884cxxMC-hYNa8s-34" value="Private subnet" style="points=[[0,0],[0.25,0],[0.5,0],[0.75,0],[1,0],[1,0.25],[1,0.5],[1,0.75],[1,1],[0.75,1],[0.5,1],[0.25,1],[0,1],[0,0.75],[0,0.5],[0,0.25]];outlineConnect=0;gradientColor=none;html=1;whiteSpace=wrap;fontSize=12;fontStyle=0;container=1;pointerEvents=0;collapsible=0;recursiveResize=0;shape=mxgraph.aws4.group;grIcon=mxgraph.aws4.group_security_group;grStroke=0;strokeColor=#00A4A6;fillColor=#E6F6F7;verticalAlign=top;align=left;spacingLeft=30;fontColor=#147EBA;dashed=0;" vertex="1" parent="4Bg8h884cxxMC-hYNa8s-31">
          <mxGeometry x="20" y="143" width="170" height="227" as="geometry" />
        </mxCell>
        <mxCell id="4Bg8h884cxxMC-hYNa8s-35" value="Auto Scaling group" style="points=[[0,0],[0.25,0],[0.5,0],[0.75,0],[1,0],[1,0.25],[1,0.5],[1,0.75],[1,1],[0.75,1],[0.5,1],[0.25,1],[0,1],[0,0.75],[0,0.5],[0,0.25]];outlineConnect=0;gradientColor=none;html=1;whiteSpace=wrap;fontSize=12;fontStyle=0;container=1;pointerEvents=0;collapsible=0;recursiveResize=0;shape=mxgraph.aws4.groupCenter;grIcon=mxgraph.aws4.group_auto_scaling_group;grStroke=1;strokeColor=#D86613;fillColor=none;verticalAlign=top;align=center;fontColor=#D86613;dashed=1;spacingTop=25;" vertex="1" parent="4Bg8h884cxxMC-hYNa8s-34">
          <mxGeometry x="20" y="34" width="130" height="176" as="geometry" />
        </mxCell>
        <mxCell id="4Bg8h884cxxMC-hYNa8s-36" value="nf_service" style="sketch=0;points=[[0,0,0],[0.25,0,0],[0.5,0,0],[0.75,0,0],[1,0,0],[0,1,0],[0.25,1,0],[0.5,1,0],[0.75,1,0],[1,1,0],[0,0.25,0],[0,0.5,0],[0,0.75,0],[1,0.25,0],[1,0.5,0],[1,0.75,0]];outlineConnect=0;fontColor=#232F3E;fillColor=#ED7100;strokeColor=#ffffff;dashed=0;verticalLabelPosition=bottom;verticalAlign=top;align=center;html=1;fontSize=12;fontStyle=0;aspect=fixed;shape=mxgraph.aws4.resourceIcon;resIcon=mxgraph.aws4.ecs;" vertex="1" parent="4Bg8h884cxxMC-hYNa8s-31">
          <mxGeometry x="83" y="260" width="44" height="44" as="geometry" />
        </mxCell>
        <mxCell id="4Bg8h884cxxMC-hYNa8s-54" value="" style="group" vertex="1" connectable="0" parent="4Bg8h884cxxMC-hYNa8s-3">
          <mxGeometry x="760" y="40" width="220" height="380" as="geometry" />
        </mxCell>
        <mxCell id="4Bg8h884cxxMC-hYNa8s-55" value="Availability Zone C" style="fillColor=none;strokeColor=#147EBA;dashed=1;verticalAlign=top;fontStyle=0;fontColor=#147EBA;whiteSpace=wrap;html=1;" vertex="1" parent="4Bg8h884cxxMC-hYNa8s-54">
          <mxGeometry width="220" height="380" as="geometry" />
        </mxCell>
        <mxCell id="4Bg8h884cxxMC-hYNa8s-56" value="nlb_nota_fiscal" style="sketch=0;outlineConnect=0;fontColor=#232F3E;gradientColor=none;fillColor=#8C4FFF;strokeColor=none;dashed=0;verticalLabelPosition=bottom;verticalAlign=top;align=center;html=1;fontSize=12;fontStyle=0;aspect=fixed;pointerEvents=1;shape=mxgraph.aws4.network_load_balancer;" vertex="1" parent="4Bg8h884cxxMC-hYNa8s-54">
          <mxGeometry x="90" y="64" width="44" height="44" as="geometry" />
        </mxCell>
        <mxCell id="4Bg8h884cxxMC-hYNa8s-57" value="Private subnet" style="points=[[0,0],[0.25,0],[0.5,0],[0.75,0],[1,0],[1,0.25],[1,0.5],[1,0.75],[1,1],[0.75,1],[0.5,1],[0.25,1],[0,1],[0,0.75],[0,0.5],[0,0.25]];outlineConnect=0;gradientColor=none;html=1;whiteSpace=wrap;fontSize=12;fontStyle=0;container=1;pointerEvents=0;collapsible=0;recursiveResize=0;shape=mxgraph.aws4.group;grIcon=mxgraph.aws4.group_security_group;grStroke=0;strokeColor=#00A4A6;fillColor=#E6F6F7;verticalAlign=top;align=left;spacingLeft=30;fontColor=#147EBA;dashed=0;" vertex="1" parent="4Bg8h884cxxMC-hYNa8s-54">
          <mxGeometry x="20" y="143" width="170" height="227" as="geometry" />
        </mxCell>
        <mxCell id="4Bg8h884cxxMC-hYNa8s-58" value="Auto Scaling group" style="points=[[0,0],[0.25,0],[0.5,0],[0.75,0],[1,0],[1,0.25],[1,0.5],[1,0.75],[1,1],[0.75,1],[0.5,1],[0.25,1],[0,1],[0,0.75],[0,0.5],[0,0.25]];outlineConnect=0;gradientColor=none;html=1;whiteSpace=wrap;fontSize=12;fontStyle=0;container=1;pointerEvents=0;collapsible=0;recursiveResize=0;shape=mxgraph.aws4.groupCenter;grIcon=mxgraph.aws4.group_auto_scaling_group;grStroke=1;strokeColor=#D86613;fillColor=none;verticalAlign=top;align=center;fontColor=#D86613;dashed=1;spacingTop=25;" vertex="1" parent="4Bg8h884cxxMC-hYNa8s-57">
          <mxGeometry x="20" y="34" width="130" height="176" as="geometry" />
        </mxCell>
        <mxCell id="4Bg8h884cxxMC-hYNa8s-59" value="nf_service" style="sketch=0;points=[[0,0,0],[0.25,0,0],[0.5,0,0],[0.75,0,0],[1,0,0],[0,1,0],[0.25,1,0],[0.5,1,0],[0.75,1,0],[1,1,0],[0,0.25,0],[0,0.5,0],[0,0.75,0],[1,0.25,0],[1,0.5,0],[1,0.75,0]];outlineConnect=0;fontColor=#232F3E;fillColor=#ED7100;strokeColor=#ffffff;dashed=0;verticalLabelPosition=bottom;verticalAlign=top;align=center;html=1;fontSize=12;fontStyle=0;aspect=fixed;shape=mxgraph.aws4.resourceIcon;resIcon=mxgraph.aws4.ecs;" vertex="1" parent="4Bg8h884cxxMC-hYNa8s-54">
          <mxGeometry x="83" y="260" width="44" height="44" as="geometry" />
        </mxCell>
        <mxCell id="4Bg8h884cxxMC-hYNa8s-70" value="baixa_nota_fiscal_queue" style="sketch=0;points=[[0,0,0],[0.25,0,0],[0.5,0,0],[0.75,0,0],[1,0,0],[0,1,0],[0.25,1,0],[0.5,1,0],[0.75,1,0],[1,1,0],[0,0.25,0],[0,0.5,0],[0,0.75,0],[1,0.25,0],[1,0.5,0],[1,0.75,0]];outlineConnect=0;fontColor=#232F3E;fillColor=#E7157B;strokeColor=#ffffff;dashed=0;verticalLabelPosition=bottom;verticalAlign=top;align=center;html=1;fontSize=12;fontStyle=0;aspect=fixed;shape=mxgraph.aws4.resourceIcon;resIcon=mxgraph.aws4.sqs;" vertex="1" parent="4Bg8h884cxxMC-hYNa8s-3">
          <mxGeometry x="208" y="510" width="44" height="44" as="geometry" />
        </mxCell>
        <mxCell id="4Bg8h884cxxMC-hYNa8s-71" value="baixa_nota_fiscal_queue_dlq" style="sketch=0;points=[[0,0,0],[0.25,0,0],[0.5,0,0],[0.75,0,0],[1,0,0],[0,1,0],[0.25,1,0],[0.5,1,0],[0.75,1,0],[1,1,0],[0,0.25,0],[0,0.5,0],[0,0.75,0],[1,0.25,0],[1,0.5,0],[1,0.75,0]];outlineConnect=0;fontColor=#232F3E;fillColor=#E7157B;strokeColor=#ffffff;dashed=0;verticalLabelPosition=bottom;verticalAlign=top;align=center;html=1;fontSize=12;fontStyle=0;aspect=fixed;shape=mxgraph.aws4.resourceIcon;resIcon=mxgraph.aws4.sqs;" vertex="1" parent="4Bg8h884cxxMC-hYNa8s-3">
          <mxGeometry x="120" y="564" width="34" height="34" as="geometry" />
        </mxCell>
        <mxCell id="4Bg8h884cxxMC-hYNa8s-73" style="edgeStyle=orthogonalEdgeStyle;rounded=0;orthogonalLoop=1;jettySize=auto;html=1;entryX=0.25;entryY=0;entryDx=0;entryDy=0;entryPerimeter=0;dashed=1;" edge="1" parent="4Bg8h884cxxMC-hYNa8s-3" source="4Bg8h884cxxMC-hYNa8s-70" target="4Bg8h884cxxMC-hYNa8s-71">
          <mxGeometry relative="1" as="geometry" />
        </mxCell>
        <mxCell id="4Bg8h884cxxMC-hYNa8s-83" style="edgeStyle=orthogonalEdgeStyle;rounded=0;orthogonalLoop=1;jettySize=auto;html=1;dashed=1;" edge="1" parent="4Bg8h884cxxMC-hYNa8s-3" source="4Bg8h884cxxMC-hYNa8s-76" target="4Bg8h884cxxMC-hYNa8s-77">
          <mxGeometry relative="1" as="geometry" />
        </mxCell>
        <mxCell id="4Bg8h884cxxMC-hYNa8s-76" value="registra_nota_fiscal_queue" style="sketch=0;points=[[0,0,0],[0.25,0,0],[0.5,0,0],[0.75,0,0],[1,0,0],[0,1,0],[0.25,1,0],[0.5,1,0],[0.75,1,0],[1,1,0],[0,0.25,0],[0,0.5,0],[0,0.75,0],[1,0.25,0],[1,0.5,0],[1,0.75,0]];outlineConnect=0;fontColor=#232F3E;fillColor=#E7157B;strokeColor=#ffffff;dashed=0;verticalLabelPosition=bottom;verticalAlign=top;align=center;html=1;fontSize=12;fontStyle=0;aspect=fixed;shape=mxgraph.aws4.resourceIcon;resIcon=mxgraph.aws4.sqs;" vertex="1" parent="4Bg8h884cxxMC-hYNa8s-3">
          <mxGeometry x="448" y="510" width="44" height="44" as="geometry" />
        </mxCell>
        <mxCell id="4Bg8h884cxxMC-hYNa8s-77" value="registra_nota_fiscal_queue_dlq" style="sketch=0;points=[[0,0,0],[0.25,0,0],[0.5,0,0],[0.75,0,0],[1,0,0],[0,1,0],[0.25,1,0],[0.5,1,0],[0.75,1,0],[1,1,0],[0,0.25,0],[0,0.5,0],[0,0.75,0],[1,0.25,0],[1,0.5,0],[1,0.75,0]];outlineConnect=0;fontColor=#232F3E;fillColor=#E7157B;strokeColor=#ffffff;dashed=0;verticalLabelPosition=bottom;verticalAlign=top;align=center;html=1;fontSize=12;fontStyle=0;aspect=fixed;shape=mxgraph.aws4.resourceIcon;resIcon=mxgraph.aws4.sqs;" vertex="1" parent="4Bg8h884cxxMC-hYNa8s-3">
          <mxGeometry x="360" y="564" width="34" height="34" as="geometry" />
        </mxCell>
        <mxCell id="4Bg8h884cxxMC-hYNa8s-78" value="agenda_entrega_queue" style="sketch=0;points=[[0,0,0],[0.25,0,0],[0.5,0,0],[0.75,0,0],[1,0,0],[0,1,0],[0.25,1,0],[0.5,1,0],[0.75,1,0],[1,1,0],[0,0.25,0],[0,0.5,0],[0,0.75,0],[1,0.25,0],[1,0.5,0],[1,0.75,0]];outlineConnect=0;fontColor=#232F3E;fillColor=#E7157B;strokeColor=#ffffff;dashed=0;verticalLabelPosition=bottom;verticalAlign=top;align=center;html=1;fontSize=12;fontStyle=0;aspect=fixed;shape=mxgraph.aws4.resourceIcon;resIcon=mxgraph.aws4.sqs;" vertex="1" parent="4Bg8h884cxxMC-hYNa8s-3">
          <mxGeometry x="688" y="510" width="44" height="44" as="geometry" />
        </mxCell>
        <mxCell id="4Bg8h884cxxMC-hYNa8s-79" value="agenda_entrega_queue_dlq" style="sketch=0;points=[[0,0,0],[0.25,0,0],[0.5,0,0],[0.75,0,0],[1,0,0],[0,1,0],[0.25,1,0],[0.5,1,0],[0.75,1,0],[1,1,0],[0,0.25,0],[0,0.5,0],[0,0.75,0],[1,0.25,0],[1,0.5,0],[1,0.75,0]];outlineConnect=0;fontColor=#232F3E;fillColor=#E7157B;strokeColor=#ffffff;dashed=0;verticalLabelPosition=bottom;verticalAlign=top;align=center;html=1;fontSize=12;fontStyle=0;aspect=fixed;shape=mxgraph.aws4.resourceIcon;resIcon=mxgraph.aws4.sqs;" vertex="1" parent="4Bg8h884cxxMC-hYNa8s-3">
          <mxGeometry x="600" y="564" width="34" height="34" as="geometry" />
        </mxCell>
        <mxCell id="4Bg8h884cxxMC-hYNa8s-80" value="nf_contas_receber_queue" style="sketch=0;points=[[0,0,0],[0.25,0,0],[0.5,0,0],[0.75,0,0],[1,0,0],[0,1,0],[0.25,1,0],[0.5,1,0],[0.75,1,0],[1,1,0],[0,0.25,0],[0,0.5,0],[0,0.75,0],[1,0.25,0],[1,0.5,0],[1,0.75,0]];outlineConnect=0;fontColor=#232F3E;fillColor=#E7157B;strokeColor=#ffffff;dashed=0;verticalLabelPosition=bottom;verticalAlign=top;align=center;html=1;fontSize=12;fontStyle=0;aspect=fixed;shape=mxgraph.aws4.resourceIcon;resIcon=mxgraph.aws4.sqs;" vertex="1" parent="4Bg8h884cxxMC-hYNa8s-3">
          <mxGeometry x="926" y="510" width="44" height="44" as="geometry" />
        </mxCell>
        <mxCell id="4Bg8h884cxxMC-hYNa8s-81" value="nf_contas_receber_queue_dlq" style="sketch=0;points=[[0,0,0],[0.25,0,0],[0.5,0,0],[0.75,0,0],[1,0,0],[0,1,0],[0.25,1,0],[0.5,1,0],[0.75,1,0],[1,1,0],[0,0.25,0],[0,0.5,0],[0,0.75,0],[1,0.25,0],[1,0.5,0],[1,0.75,0]];outlineConnect=0;fontColor=#232F3E;fillColor=#E7157B;strokeColor=#ffffff;dashed=0;verticalLabelPosition=bottom;verticalAlign=top;align=center;html=1;fontSize=12;fontStyle=0;aspect=fixed;shape=mxgraph.aws4.resourceIcon;resIcon=mxgraph.aws4.sqs;" vertex="1" parent="4Bg8h884cxxMC-hYNa8s-3">
          <mxGeometry x="838" y="564" width="34" height="34" as="geometry" />
        </mxCell>
        <mxCell id="4Bg8h884cxxMC-hYNa8s-84" style="edgeStyle=orthogonalEdgeStyle;rounded=0;orthogonalLoop=1;jettySize=auto;html=1;entryX=0.25;entryY=0;entryDx=0;entryDy=0;entryPerimeter=0;dashed=1;" edge="1" parent="4Bg8h884cxxMC-hYNa8s-3" source="4Bg8h884cxxMC-hYNa8s-78" target="4Bg8h884cxxMC-hYNa8s-79">
          <mxGeometry relative="1" as="geometry" />
        </mxCell>
        <mxCell id="4Bg8h884cxxMC-hYNa8s-85" style="edgeStyle=orthogonalEdgeStyle;rounded=0;orthogonalLoop=1;jettySize=auto;html=1;entryX=0.5;entryY=0;entryDx=0;entryDy=0;entryPerimeter=0;dashed=1;" edge="1" parent="4Bg8h884cxxMC-hYNa8s-3" source="4Bg8h884cxxMC-hYNa8s-80" target="4Bg8h884cxxMC-hYNa8s-81">
          <mxGeometry relative="1" as="geometry" />
        </mxCell>
        <mxCell id="4Bg8h884cxxMC-hYNa8s-89" value="async" style="fillColor=none;strokeColor=#5A6C86;dashed=1;verticalAlign=top;fontStyle=0;fontColor=#5A6C86;whiteSpace=wrap;html=1;" vertex="1" parent="4Bg8h884cxxMC-hYNa8s-3">
          <mxGeometry x="20" y="470" width="1010" height="160" as="geometry" />
        </mxCell>
        <mxCell id="4Bg8h884cxxMC-hYNa8s-91" style="edgeStyle=orthogonalEdgeStyle;rounded=0;orthogonalLoop=1;jettySize=auto;html=1;entryX=0.539;entryY=0.014;entryDx=0;entryDy=0;entryPerimeter=0;dashed=1;" edge="1" parent="4Bg8h884cxxMC-hYNa8s-3" source="4Bg8h884cxxMC-hYNa8s-36" target="4Bg8h884cxxMC-hYNa8s-89">
          <mxGeometry relative="1" as="geometry" />
        </mxCell>
        <mxCell id="4Bg8h884cxxMC-hYNa8s-92" style="edgeStyle=orthogonalEdgeStyle;rounded=0;orthogonalLoop=1;jettySize=auto;html=1;entryX=0.212;entryY=0.005;entryDx=0;entryDy=0;entryPerimeter=0;dashed=1;" edge="1" parent="4Bg8h884cxxMC-hYNa8s-3" source="4Bg8h884cxxMC-hYNa8s-27" target="4Bg8h884cxxMC-hYNa8s-89">
          <mxGeometry relative="1" as="geometry" />
        </mxCell>
        <mxCell id="4Bg8h884cxxMC-hYNa8s-94" style="edgeStyle=orthogonalEdgeStyle;rounded=0;orthogonalLoop=1;jettySize=auto;html=1;entryX=0.837;entryY=0.014;entryDx=0;entryDy=0;entryPerimeter=0;dashed=1;" edge="1" parent="4Bg8h884cxxMC-hYNa8s-3" source="4Bg8h884cxxMC-hYNa8s-59" target="4Bg8h884cxxMC-hYNa8s-89">
          <mxGeometry relative="1" as="geometry" />
        </mxCell>
        <mxCell id="4Bg8h884cxxMC-hYNa8s-63" style="edgeStyle=orthogonalEdgeStyle;rounded=0;orthogonalLoop=1;jettySize=auto;html=1;" edge="1" parent="4Bg8h884cxxMC-hYNa8s-2" source="4Bg8h884cxxMC-hYNa8s-5" target="4Bg8h884cxxMC-hYNa8s-62">
          <mxGeometry relative="1" as="geometry" />
        </mxCell>
        <mxCell id="4Bg8h884cxxMC-hYNa8s-99" style="edgeStyle=orthogonalEdgeStyle;rounded=0;orthogonalLoop=1;jettySize=auto;html=1;" edge="1" parent="4Bg8h884cxxMC-hYNa8s-2" source="4Bg8h884cxxMC-hYNa8s-5" target="4Bg8h884cxxMC-hYNa8s-98">
          <mxGeometry relative="1" as="geometry" />
        </mxCell>
        <mxCell id="4Bg8h884cxxMC-hYNa8s-103" value="Text" style="edgeLabel;html=1;align=center;verticalAlign=middle;resizable=0;points=[];" vertex="1" connectable="0" parent="4Bg8h884cxxMC-hYNa8s-99">
          <mxGeometry x="-0.0411" y="4" relative="1" as="geometry">
            <mxPoint x="1" as="offset" />
          </mxGeometry>
        </mxCell>
        <mxCell id="4Bg8h884cxxMC-hYNa8s-5" value="nota_fiscal_gtw" style="sketch=0;points=[[0,0,0],[0.25,0,0],[0.5,0,0],[0.75,0,0],[1,0,0],[0,1,0],[0.25,1,0],[0.5,1,0],[0.75,1,0],[1,1,0],[0,0.25,0],[0,0.5,0],[0,0.75,0],[1,0.25,0],[1,0.5,0],[1,0.75,0]];outlineConnect=0;fontColor=#232F3E;fillColor=#8C4FFF;strokeColor=#ffffff;dashed=0;verticalLabelPosition=bottom;verticalAlign=top;align=center;html=1;fontSize=12;fontStyle=0;aspect=fixed;shape=mxgraph.aws4.resourceIcon;resIcon=mxgraph.aws4.api_gateway;" vertex="1" parent="4Bg8h884cxxMC-hYNa8s-2">
          <mxGeometry x="579" y="20" width="45" height="45" as="geometry" />
        </mxCell>
        <mxCell id="4Bg8h884cxxMC-hYNa8s-64" style="edgeStyle=orthogonalEdgeStyle;rounded=0;orthogonalLoop=1;jettySize=auto;html=1;dashed=1;" edge="1" parent="4Bg8h884cxxMC-hYNa8s-2" source="4Bg8h884cxxMC-hYNa8s-62" target="4Bg8h884cxxMC-hYNa8s-12">
          <mxGeometry relative="1" as="geometry" />
        </mxCell>
        <mxCell id="4Bg8h884cxxMC-hYNa8s-65" style="edgeStyle=orthogonalEdgeStyle;rounded=0;orthogonalLoop=1;jettySize=auto;html=1;dashed=1;" edge="1" parent="4Bg8h884cxxMC-hYNa8s-2" source="4Bg8h884cxxMC-hYNa8s-62" target="4Bg8h884cxxMC-hYNa8s-33">
          <mxGeometry relative="1" as="geometry" />
        </mxCell>
        <mxCell id="4Bg8h884cxxMC-hYNa8s-66" style="edgeStyle=orthogonalEdgeStyle;rounded=0;orthogonalLoop=1;jettySize=auto;html=1;dashed=1;" edge="1" parent="4Bg8h884cxxMC-hYNa8s-2" source="4Bg8h884cxxMC-hYNa8s-62" target="4Bg8h884cxxMC-hYNa8s-56">
          <mxGeometry relative="1" as="geometry" />
        </mxCell>
        <mxCell id="4Bg8h884cxxMC-hYNa8s-62" value="VPC Link" style="sketch=0;outlineConnect=0;fontColor=#232F3E;gradientColor=none;fillColor=#8C4FFF;strokeColor=none;dashed=0;verticalLabelPosition=bottom;verticalAlign=top;align=center;html=1;fontSize=12;fontStyle=0;aspect=fixed;pointerEvents=1;shape=mxgraph.aws4.endpoints;" vertex="1" parent="4Bg8h884cxxMC-hYNa8s-2">
          <mxGeometry x="588" y="120" width="27" height="27" as="geometry" />
        </mxCell>
        <mxCell id="4Bg8h884cxxMC-hYNa8s-67" value="Cloud Watch" style="sketch=0;points=[[0,0,0],[0.25,0,0],[0.5,0,0],[0.75,0,0],[1,0,0],[0,1,0],[0.25,1,0],[0.5,1,0],[0.75,1,0],[1,1,0],[0,0.25,0],[0,0.5,0],[0,0.75,0],[1,0.25,0],[1,0.5,0],[1,0.75,0]];points=[[0,0,0],[0.25,0,0],[0.5,0,0],[0.75,0,0],[1,0,0],[0,1,0],[0.25,1,0],[0.5,1,0],[0.75,1,0],[1,1,0],[0,0.25,0],[0,0.5,0],[0,0.75,0],[1,0.25,0],[1,0.5,0],[1,0.75,0]];outlineConnect=0;fontColor=#232F3E;fillColor=#E7157B;strokeColor=#ffffff;dashed=0;verticalLabelPosition=bottom;verticalAlign=top;align=center;html=1;fontSize=12;fontStyle=0;aspect=fixed;shape=mxgraph.aws4.resourceIcon;resIcon=mxgraph.aws4.cloudwatch_2;" vertex="1" parent="4Bg8h884cxxMC-hYNa8s-2">
          <mxGeometry x="1120" y="216" width="78" height="78" as="geometry" />
        </mxCell>
        <mxCell id="4Bg8h884cxxMC-hYNa8s-68" value="Parameter Store" style="sketch=0;outlineConnect=0;fontColor=#232F3E;gradientColor=none;fillColor=#E7157B;strokeColor=none;dashed=0;verticalLabelPosition=bottom;verticalAlign=top;align=center;html=1;fontSize=12;fontStyle=0;aspect=fixed;pointerEvents=1;shape=mxgraph.aws4.parameter_store;" vertex="1" parent="4Bg8h884cxxMC-hYNa8s-2">
          <mxGeometry x="1123" y="370" width="75" height="78" as="geometry" />
        </mxCell>
        <mxCell id="4Bg8h884cxxMC-hYNa8s-69" value="Secrets Manager" style="sketch=0;points=[[0,0,0],[0.25,0,0],[0.5,0,0],[0.75,0,0],[1,0,0],[0,1,0],[0.25,1,0],[0.5,1,0],[0.75,1,0],[1,1,0],[0,0.25,0],[0,0.5,0],[0,0.75,0],[1,0.25,0],[1,0.5,0],[1,0.75,0]];outlineConnect=0;fontColor=#232F3E;fillColor=#DD344C;strokeColor=#ffffff;dashed=0;verticalLabelPosition=bottom;verticalAlign=top;align=center;html=1;fontSize=12;fontStyle=0;aspect=fixed;shape=mxgraph.aws4.resourceIcon;resIcon=mxgraph.aws4.secrets_manager;" vertex="1" parent="4Bg8h884cxxMC-hYNa8s-2">
          <mxGeometry x="1123" y="522" width="78" height="78" as="geometry" />
        </mxCell>
        <mxCell id="4Bg8h884cxxMC-hYNa8s-97" value="KMS" style="outlineConnect=0;dashed=0;verticalLabelPosition=bottom;verticalAlign=top;align=center;html=1;shape=mxgraph.aws3.kms;fillColor=#759C3E;gradientColor=none;" vertex="1" parent="4Bg8h884cxxMC-hYNa8s-2">
          <mxGeometry x="1123" y="670" width="76.5" height="93" as="geometry" />
        </mxCell>
        <mxCell id="4Bg8h884cxxMC-hYNa8s-98" value="lambda_authorizer_token" style="sketch=0;points=[[0,0,0],[0.25,0,0],[0.5,0,0],[0.75,0,0],[1,0,0],[0,1,0],[0.25,1,0],[0.5,1,0],[0.75,1,0],[1,1,0],[0,0.25,0],[0,0.5,0],[0,0.75,0],[1,0.25,0],[1,0.5,0],[1,0.75,0]];outlineConnect=0;fontColor=#232F3E;fillColor=#ED7100;strokeColor=#ffffff;dashed=0;verticalLabelPosition=bottom;verticalAlign=top;align=center;html=1;fontSize=12;fontStyle=0;aspect=fixed;shape=mxgraph.aws4.resourceIcon;resIcon=mxgraph.aws4.lambda;" vertex="1" parent="4Bg8h884cxxMC-hYNa8s-2">
          <mxGeometry x="813.5" y="20" width="44" height="44" as="geometry" />
        </mxCell>
        <mxCell id="4Bg8h884cxxMC-hYNa8s-100" value="cognito" style="sketch=0;points=[[0,0,0],[0.25,0,0],[0.5,0,0],[0.75,0,0],[1,0,0],[0,1,0],[0.25,1,0],[0.5,1,0],[0.75,1,0],[1,1,0],[0,0.25,0],[0,0.5,0],[0,0.75,0],[1,0.25,0],[1,0.5,0],[1,0.75,0]];outlineConnect=0;fontColor=#232F3E;fillColor=#DD344C;strokeColor=#ffffff;dashed=0;verticalLabelPosition=bottom;verticalAlign=top;align=center;html=1;fontSize=12;fontStyle=0;aspect=fixed;shape=mxgraph.aws4.resourceIcon;resIcon=mxgraph.aws4.cognito;" vertex="1" parent="4Bg8h884cxxMC-hYNa8s-2">
          <mxGeometry x="373.5" y="21" width="49" height="49" as="geometry" />
        </mxCell>
        <mxCell id="4Bg8h884cxxMC-hYNa8s-15" style="edgeStyle=orthogonalEdgeStyle;rounded=0;orthogonalLoop=1;jettySize=auto;html=1;dashed=1;" edge="1" parent="1" source="4Bg8h884cxxMC-hYNa8s-4" target="4Bg8h884cxxMC-hYNa8s-5">
          <mxGeometry relative="1" as="geometry" />
        </mxCell>
        <mxCell id="4Bg8h884cxxMC-hYNa8s-101" style="edgeStyle=orthogonalEdgeStyle;rounded=0;orthogonalLoop=1;jettySize=auto;html=1;dashed=1;flowAnimation=1;" edge="1" parent="1" source="4Bg8h884cxxMC-hYNa8s-4" target="4Bg8h884cxxMC-hYNa8s-100">
          <mxGeometry relative="1" as="geometry" />
        </mxCell>
        <mxCell id="4Bg8h884cxxMC-hYNa8s-102" value="AutenticaÃ§Ã£o" style="edgeLabel;html=1;align=center;verticalAlign=middle;resizable=0;points=[];" vertex="1" connectable="0" parent="4Bg8h884cxxMC-hYNa8s-101">
          <mxGeometry x="0.1639" y="4" relative="1" as="geometry">
            <mxPoint as="offset" />
          </mxGeometry>
        </mxCell>
        <mxCell id="4Bg8h884cxxMC-hYNa8s-4" value="clients" style="sketch=0;outlineConnect=0;gradientColor=none;fontColor=#545B64;strokeColor=none;fillColor=#879196;dashed=0;verticalLabelPosition=bottom;verticalAlign=top;align=center;html=1;fontSize=12;fontStyle=0;aspect=fixed;shape=mxgraph.aws4.illustration_users;pointerEvents=1" vertex="1" parent="1">
          <mxGeometry x="338" y="-210" width="80" height="80" as="geometry" />
        </mxCell>
      </root>
    </mxGraphModel>
  </diagram>
</mxfile>
